<?xml version="1.0" encoding="UTF-8"?>
<svg xmlns="http://www.w3.org/2000/svg" xmlns:xlink="http://www.w3.org/1999/xlink" viewBox="0 0 64 64" width="64px" height="64px">
<defs>
<linearGradient id="linear0" gradientUnits="userSpaceOnUse" x1="113" y1="18.832161" x2="113" y2="211.405334" gradientTransform="matrix(0.297345,0,0,0.297345,-1.6,-1.6)">
<stop offset="0" style="stop-color:rgb(10.196079%,42.745098%,100%);stop-opacity:1;"/>
<stop offset="1" style="stop-color:rgb(78.431374%,13.333334%,100%);stop-opacity:1;"/>
</linearGradient>
<linearGradient id="linear1" gradientUnits="userSpaceOnUse" x1="113" y1="18.832161" x2="113" y2="211.405334" gradientTransform="matrix(0.297345,0,0,0.297345,-1.6,-1.6)">
<stop offset="0" style="stop-color:rgb(10.196079%,42.745098%,100%);stop-opacity:1;"/>
<stop offset="1" style="stop-color:rgb(78.431374%,13.333334%,100%);stop-opacity:1;"/>
</linearGradient>
<linearGradient id="linear2" gradientUnits="userSpaceOnUse" x1="113" y1="75.921883" x2="113" y2="92.999001" gradientTransform="matrix(0.297345,0,0,0.297345,-1.6,-1.6)">
<stop offset="0" style="stop-color:rgb(54.11765%,70.588237%,100%);stop-opacity:1;"/>
<stop offset="1" style="stop-color:rgb(89.411765%,57.254905%,100%);stop-opacity:1;"/>
</linearGradient>
<linearGradient id="linear3" gradientUnits="userSpaceOnUse" x1="113" y1="103.582161" x2="113" y2="121.828133" gradientTransform="matrix(0.297345,0,0,0.297345,-1.6,-1.6)">
<stop offset="0" style="stop-color:rgb(54.11765%,70.588237%,100%);stop-opacity:1;"/>
<stop offset="1" style="stop-color:rgb(89.411765%,57.254905%,100%);stop-opacity:1;"/>
</linearGradient>
<linearGradient id="linear4" gradientUnits="userSpaceOnUse" x1="113" y1="130.65625" x2="113" y2="145.971283" gradientTransform="matrix(0.297345,0,0,0.297345,-1.6,-1.6)">
<stop offset="0" style="stop-color:rgb(54.11765%,70.588237%,100%);stop-opacity:1;"/>
<stop offset="1" style="stop-color:rgb(89.411765%,57.254905%,100%);stop-opacity:1;"/>
</linearGradient>
</defs>
<g id="surface66179352">
<path style=" stroke:none;fill-rule:nonzero;fill:url(#linear0);" d="M 32 59.300781 C 16.945312 59.300781 4.699219 47.054688 4.699219 32 C 4.699219 16.945312 16.945312 4.699219 32 4.699219 C 47.054688 4.699219 59.300781 16.945312 59.300781 32 C 59.300781 47.054688 47.054688 59.300781 32 59.300781 Z M 32 6.800781 C 18.105469 6.800781 6.800781 18.105469 6.800781 32 C 6.800781 45.894531 18.105469 57.199219 32 57.199219 C 45.894531 57.199219 57.199219 45.894531 57.199219 32 C 57.199219 18.105469 45.894531 6.800781 32 6.800781 Z M 32 6.800781 "/>
<path style=" stroke:none;fill-rule:nonzero;fill:url(#linear1);" d="M 32 53 C 20.421875 53 11 43.578125 11 32 C 11 20.421875 20.421875 11 32 11 C 43.578125 11 53 20.421875 53 32 C 53 43.578125 43.578125 53 32 53 Z M 32 13.101562 C 21.578125 13.101562 13.101562 21.578125 13.101562 32 C 13.101562 42.421875 21.578125 50.898438 32 50.898438 C 42.421875 50.898438 50.898438 42.421875 50.898438 32 C 50.898438 21.578125 42.421875 13.101562 32 13.101562 Z M 32 13.101562 "/>
<path style=" stroke:none;fill-rule:nonzero;fill:url(#linear2);" d="M 42.5 24.648438 C 42.5 25.230469 42.03125 25.699219 41.449219 25.699219 L 22.550781 25.699219 C 21.96875 25.699219 21.5 25.230469 21.5 24.648438 L 21.5 22.550781 C 21.5 21.96875 21.96875 21.5 22.550781 21.5 L 41.449219 21.5 C 42.03125 21.5 42.5 21.96875 42.5 22.550781 Z M 42.5 24.648438 "/>
<path style=" stroke:none;fill-rule:nonzero;fill:url(#linear3);" d="M 42.5 33.050781 C 42.5 33.628906 42.03125 34.101562 41.449219 34.101562 L 22.550781 34.101562 C 21.96875 34.101562 21.5 33.628906 21.5 33.050781 L 21.5 30.949219 C 21.5 30.371094 21.96875 29.898438 22.550781 29.898438 L 41.449219 29.898438 C 42.03125 29.898438 42.5 30.371094 42.5 30.949219 Z M 42.5 33.050781 "/>
<path style=" stroke:none;fill-rule:nonzero;fill:url(#linear4);" d="M 42.5 41.449219 C 42.5 42.03125 42.03125 42.5 41.449219 42.5 L 22.550781 42.5 C 21.96875 42.5 21.5 42.03125 21.5 41.449219 L 21.5 39.351562 C 21.5 38.769531 21.96875 38.300781 22.550781 38.300781 L 41.449219 38.300781 C 42.03125 38.300781 42.5 38.769531 42.5 39.351562 Z M 42.5 41.449219 "/>
</g>
</svg>
