<svg width="16" height="16" xmlns="http://www.w3.org/2000/svg" fill="currentColor" class="bi bi-arrow-up-circle-fill">
 <g>
  <title>Layer 1</title>
  <path stroke="#8391AE" d="m15.375,8.04464a7.375,7.24107 0 1 0 -14.75,0a7.375,7.24107 0 0 0 14.75,0zm-6.91406,3.16797a0.46094,0.45257 0 0 1 -0.92188,0l0,-5.24344l-1.97834,1.94332a0.46094,0.45257 0 1 1 -0.65269,-0.64084l2.76563,-2.7154a0.46094,0.45257 0 0 1 0.65269,0l2.76563,2.7154a0.46094,0.45257 0 0 1 -0.65269,0.64084l-1.97834,-1.94332l0,5.24344z" id="svg_1"/>
 </g>

</svg>